<mxfile host="Electron" agent="Mozilla/5.0 (Macintosh; Intel Mac OS X 10_15_7) AppleWebKit/537.36 (KHTML, like Gecko) draw.io/28.0.4 Chrome/138.0.7204.97 Electron/37.2.1 Safari/537.36" version="28.0.4">
  <diagram name="Page-1" id="5Jk46Qzmpm4ABDAFcSJh">
    <mxGraphModel dx="1234" dy="859" grid="1" gridSize="10" guides="1" tooltips="1" connect="1" arrows="1" fold="1" page="1" pageScale="1" pageWidth="850" pageHeight="1100" math="0" shadow="0">
      <root>
        <mxCell id="0" />
        <mxCell id="1" parent="0" />
        <mxCell id="dEPkMPtz0mOxGg-Ydmhy-1" value="" style="rounded=0;whiteSpace=wrap;html=1;fillColor=none;dashed=1;" parent="1" vertex="1">
          <mxGeometry x="100" y="140" width="260" height="530" as="geometry" />
        </mxCell>
        <mxCell id="dEPkMPtz0mOxGg-Ydmhy-2" value="&lt;font style=&quot;font-size: 16px;&quot;&gt;Sources&lt;/font&gt;" style="rounded=0;whiteSpace=wrap;html=1;" parent="1" vertex="1">
          <mxGeometry x="168" y="100" width="125" height="60" as="geometry" />
        </mxCell>
        <mxCell id="dEPkMPtz0mOxGg-Ydmhy-14" style="edgeStyle=orthogonalEdgeStyle;rounded=0;orthogonalLoop=1;jettySize=auto;html=1;entryX=0;entryY=0.75;entryDx=0;entryDy=0;" parent="1" source="dEPkMPtz0mOxGg-Ydmhy-3" target="dEPkMPtz0mOxGg-Ydmhy-12" edge="1">
          <mxGeometry relative="1" as="geometry" />
        </mxCell>
        <mxCell id="dEPkMPtz0mOxGg-Ydmhy-15" style="edgeStyle=orthogonalEdgeStyle;rounded=0;orthogonalLoop=1;jettySize=auto;html=1;" parent="1" source="dEPkMPtz0mOxGg-Ydmhy-3" target="dEPkMPtz0mOxGg-Ydmhy-11" edge="1">
          <mxGeometry relative="1" as="geometry" />
        </mxCell>
        <mxCell id="dEPkMPtz0mOxGg-Ydmhy-16" style="edgeStyle=orthogonalEdgeStyle;rounded=0;orthogonalLoop=1;jettySize=auto;html=1;entryX=0;entryY=0.5;entryDx=0;entryDy=0;" parent="1" source="dEPkMPtz0mOxGg-Ydmhy-3" target="dEPkMPtz0mOxGg-Ydmhy-13" edge="1">
          <mxGeometry relative="1" as="geometry" />
        </mxCell>
        <mxCell id="dEPkMPtz0mOxGg-Ydmhy-3" value="&lt;b&gt;CRM&lt;/b&gt;" style="image;aspect=fixed;html=1;points=[];align=center;fontSize=12;image=img/lib/azure2/general/Folder_Blank.svg;" parent="1" vertex="1">
          <mxGeometry x="196" y="220" width="74" height="60.06" as="geometry" />
        </mxCell>
        <mxCell id="dEPkMPtz0mOxGg-Ydmhy-20" style="edgeStyle=orthogonalEdgeStyle;rounded=0;orthogonalLoop=1;jettySize=auto;html=1;" parent="1" source="dEPkMPtz0mOxGg-Ydmhy-4" target="dEPkMPtz0mOxGg-Ydmhy-17" edge="1">
          <mxGeometry relative="1" as="geometry" />
        </mxCell>
        <mxCell id="dEPkMPtz0mOxGg-Ydmhy-22" style="edgeStyle=orthogonalEdgeStyle;rounded=0;orthogonalLoop=1;jettySize=auto;html=1;entryX=0;entryY=0.5;entryDx=0;entryDy=0;" parent="1" source="dEPkMPtz0mOxGg-Ydmhy-4" target="dEPkMPtz0mOxGg-Ydmhy-18" edge="1">
          <mxGeometry relative="1" as="geometry" />
        </mxCell>
        <mxCell id="dEPkMPtz0mOxGg-Ydmhy-23" style="edgeStyle=orthogonalEdgeStyle;rounded=0;orthogonalLoop=1;jettySize=auto;html=1;entryX=0;entryY=0.5;entryDx=0;entryDy=0;" parent="1" source="dEPkMPtz0mOxGg-Ydmhy-4" target="dEPkMPtz0mOxGg-Ydmhy-19" edge="1">
          <mxGeometry relative="1" as="geometry" />
        </mxCell>
        <mxCell id="dEPkMPtz0mOxGg-Ydmhy-4" value="&lt;b&gt;ERP&lt;/b&gt;" style="image;aspect=fixed;html=1;points=[];align=center;fontSize=12;image=img/lib/azure2/general/Folder_Blank.svg;" parent="1" vertex="1">
          <mxGeometry x="198.5" y="470" width="69" height="56.00000000000001" as="geometry" />
        </mxCell>
        <mxCell id="dEPkMPtz0mOxGg-Ydmhy-5" value="" style="rounded=1;whiteSpace=wrap;html=1;fillColor=none;strokeColor=#d79b00;" parent="1" vertex="1">
          <mxGeometry x="400" y="180" width="230" height="490" as="geometry" />
        </mxCell>
        <mxCell id="dEPkMPtz0mOxGg-Ydmhy-6" value="&lt;b&gt;&lt;font style=&quot;font-size: 16px;&quot;&gt;Bronze Layer&lt;/font&gt;&lt;/b&gt;" style="rounded=1;whiteSpace=wrap;html=1;fillColor=#ffe6cc;strokeColor=#d79b00;" parent="1" vertex="1">
          <mxGeometry x="400" y="100" width="230" height="60" as="geometry" />
        </mxCell>
        <mxCell id="Gm9DlHDfgeT_d0xdvwFA-9" style="edgeStyle=orthogonalEdgeStyle;rounded=0;orthogonalLoop=1;jettySize=auto;html=1;exitX=1;exitY=0.5;exitDx=0;exitDy=0;" edge="1" parent="1" source="dEPkMPtz0mOxGg-Ydmhy-11" target="Gm9DlHDfgeT_d0xdvwFA-3">
          <mxGeometry relative="1" as="geometry" />
        </mxCell>
        <mxCell id="dEPkMPtz0mOxGg-Ydmhy-11" value="&lt;font style=&quot;font-size: 14px;&quot;&gt;crm_sales_details&lt;/font&gt;" style="rounded=1;whiteSpace=wrap;html=1;fillColor=#ffe6cc;strokeColor=#d79b00;" parent="1" vertex="1">
          <mxGeometry x="455" y="220.06" width="120" height="60" as="geometry" />
        </mxCell>
        <mxCell id="Gm9DlHDfgeT_d0xdvwFA-10" style="edgeStyle=orthogonalEdgeStyle;rounded=0;orthogonalLoop=1;jettySize=auto;html=1;" edge="1" parent="1" source="dEPkMPtz0mOxGg-Ydmhy-12" target="Gm9DlHDfgeT_d0xdvwFA-4">
          <mxGeometry relative="1" as="geometry" />
        </mxCell>
        <mxCell id="dEPkMPtz0mOxGg-Ydmhy-12" value="&lt;font style=&quot;font-size: 14px;&quot;&gt;crm_cust_info&lt;/font&gt;" style="rounded=1;whiteSpace=wrap;html=1;fillColor=#ffe6cc;strokeColor=#d79b00;" parent="1" vertex="1">
          <mxGeometry x="455" y="290" width="120" height="60" as="geometry" />
        </mxCell>
        <mxCell id="Gm9DlHDfgeT_d0xdvwFA-11" style="edgeStyle=orthogonalEdgeStyle;rounded=0;orthogonalLoop=1;jettySize=auto;html=1;" edge="1" parent="1" source="dEPkMPtz0mOxGg-Ydmhy-13" target="Gm9DlHDfgeT_d0xdvwFA-5">
          <mxGeometry relative="1" as="geometry" />
        </mxCell>
        <mxCell id="dEPkMPtz0mOxGg-Ydmhy-13" value="&lt;font style=&quot;font-size: 14px;&quot;&gt;crm_prd_info&lt;/font&gt;" style="rounded=1;whiteSpace=wrap;html=1;fillColor=#ffe6cc;strokeColor=#d79b00;" parent="1" vertex="1">
          <mxGeometry x="455" y="360" width="120" height="60" as="geometry" />
        </mxCell>
        <mxCell id="Gm9DlHDfgeT_d0xdvwFA-12" style="edgeStyle=orthogonalEdgeStyle;rounded=0;orthogonalLoop=1;jettySize=auto;html=1;exitX=1;exitY=0.5;exitDx=0;exitDy=0;" edge="1" parent="1" source="dEPkMPtz0mOxGg-Ydmhy-17" target="Gm9DlHDfgeT_d0xdvwFA-6">
          <mxGeometry relative="1" as="geometry" />
        </mxCell>
        <mxCell id="dEPkMPtz0mOxGg-Ydmhy-17" value="&lt;font style=&quot;font-size: 14px;&quot;&gt;erp_cust_az12&lt;/font&gt;" style="rounded=1;whiteSpace=wrap;html=1;fillColor=#ffe6cc;strokeColor=#d79b00;" parent="1" vertex="1">
          <mxGeometry x="455" y="440" width="120" height="60" as="geometry" />
        </mxCell>
        <mxCell id="Gm9DlHDfgeT_d0xdvwFA-13" style="edgeStyle=orthogonalEdgeStyle;rounded=0;orthogonalLoop=1;jettySize=auto;html=1;exitX=1;exitY=0.5;exitDx=0;exitDy=0;" edge="1" parent="1" source="dEPkMPtz0mOxGg-Ydmhy-18" target="Gm9DlHDfgeT_d0xdvwFA-7">
          <mxGeometry relative="1" as="geometry" />
        </mxCell>
        <mxCell id="dEPkMPtz0mOxGg-Ydmhy-18" value="&lt;font style=&quot;font-size: 14px;&quot;&gt;erp_loc_a101&lt;/font&gt;" style="rounded=1;whiteSpace=wrap;html=1;fillColor=#ffe6cc;strokeColor=#d79b00;" parent="1" vertex="1">
          <mxGeometry x="455" y="510" width="120" height="60" as="geometry" />
        </mxCell>
        <mxCell id="Gm9DlHDfgeT_d0xdvwFA-14" style="edgeStyle=orthogonalEdgeStyle;rounded=0;orthogonalLoop=1;jettySize=auto;html=1;exitX=1;exitY=0.5;exitDx=0;exitDy=0;" edge="1" parent="1" source="dEPkMPtz0mOxGg-Ydmhy-19" target="Gm9DlHDfgeT_d0xdvwFA-8">
          <mxGeometry relative="1" as="geometry" />
        </mxCell>
        <mxCell id="dEPkMPtz0mOxGg-Ydmhy-19" value="&lt;font style=&quot;font-size: 14px;&quot;&gt;erp_px_cat_g1v2&lt;/font&gt;" style="rounded=1;whiteSpace=wrap;html=1;fillColor=#ffe6cc;strokeColor=#d79b00;" parent="1" vertex="1">
          <mxGeometry x="455" y="580" width="120" height="60" as="geometry" />
        </mxCell>
        <mxCell id="Gm9DlHDfgeT_d0xdvwFA-1" value="" style="rounded=1;whiteSpace=wrap;html=1;fillColor=none;strokeColor=#666666;fontColor=#333333;" vertex="1" parent="1">
          <mxGeometry x="660" y="180" width="230" height="490" as="geometry" />
        </mxCell>
        <mxCell id="Gm9DlHDfgeT_d0xdvwFA-2" value="&lt;b&gt;&lt;font style=&quot;font-size: 16px;&quot;&gt;Silver Layer&lt;/font&gt;&lt;/b&gt;" style="rounded=1;whiteSpace=wrap;html=1;fillColor=#f5f5f5;strokeColor=#666666;fontColor=#333333;" vertex="1" parent="1">
          <mxGeometry x="660" y="100" width="230" height="60" as="geometry" />
        </mxCell>
        <mxCell id="Gm9DlHDfgeT_d0xdvwFA-3" value="&lt;font style=&quot;font-size: 14px;&quot;&gt;crm_sales_details&lt;/font&gt;" style="rounded=1;whiteSpace=wrap;html=1;fillColor=#f5f5f5;strokeColor=#666666;fontColor=#333333;" vertex="1" parent="1">
          <mxGeometry x="715" y="220.06" width="120" height="60" as="geometry" />
        </mxCell>
        <mxCell id="Gm9DlHDfgeT_d0xdvwFA-4" value="&lt;font style=&quot;font-size: 14px;&quot;&gt;crm_cust_info&lt;/font&gt;" style="rounded=1;whiteSpace=wrap;html=1;fillColor=#f5f5f5;strokeColor=#666666;fontColor=#333333;" vertex="1" parent="1">
          <mxGeometry x="715" y="290" width="120" height="60" as="geometry" />
        </mxCell>
        <mxCell id="Gm9DlHDfgeT_d0xdvwFA-5" value="&lt;font style=&quot;font-size: 14px;&quot;&gt;crm_prd_info&lt;/font&gt;" style="rounded=1;whiteSpace=wrap;html=1;fillColor=#f5f5f5;strokeColor=#666666;fontColor=#333333;" vertex="1" parent="1">
          <mxGeometry x="715" y="360" width="120" height="60" as="geometry" />
        </mxCell>
        <mxCell id="Gm9DlHDfgeT_d0xdvwFA-6" value="&lt;font style=&quot;font-size: 14px;&quot;&gt;erp_cust_az12&lt;/font&gt;" style="rounded=1;whiteSpace=wrap;html=1;fillColor=#f5f5f5;strokeColor=#666666;fontColor=#333333;" vertex="1" parent="1">
          <mxGeometry x="715" y="440" width="120" height="60" as="geometry" />
        </mxCell>
        <mxCell id="Gm9DlHDfgeT_d0xdvwFA-7" value="&lt;font style=&quot;font-size: 14px;&quot;&gt;erp_loc_a101&lt;/font&gt;" style="rounded=1;whiteSpace=wrap;html=1;fillColor=#f5f5f5;strokeColor=#666666;fontColor=#333333;" vertex="1" parent="1">
          <mxGeometry x="715" y="510" width="120" height="60" as="geometry" />
        </mxCell>
        <mxCell id="Gm9DlHDfgeT_d0xdvwFA-8" value="&lt;font style=&quot;font-size: 14px;&quot;&gt;erp_px_cat_g1v2&lt;/font&gt;" style="rounded=1;whiteSpace=wrap;html=1;fillColor=#f5f5f5;strokeColor=#666666;fontColor=#333333;" vertex="1" parent="1">
          <mxGeometry x="715" y="580" width="120" height="60" as="geometry" />
        </mxCell>
        <mxCell id="Gm9DlHDfgeT_d0xdvwFA-15" value="" style="rounded=1;whiteSpace=wrap;html=1;fillColor=none;strokeColor=#d6b656;" vertex="1" parent="1">
          <mxGeometry x="930" y="180" width="230" height="490" as="geometry" />
        </mxCell>
        <mxCell id="Gm9DlHDfgeT_d0xdvwFA-16" value="&lt;b&gt;&lt;font style=&quot;font-size: 16px;&quot;&gt;Gold Layer&lt;/font&gt;&lt;/b&gt;" style="rounded=1;whiteSpace=wrap;html=1;fillColor=#fff2cc;strokeColor=#d6b656;" vertex="1" parent="1">
          <mxGeometry x="930" y="100" width="230" height="60" as="geometry" />
        </mxCell>
        <mxCell id="Gm9DlHDfgeT_d0xdvwFA-17" value="&lt;span style=&quot;font-size: 14px;&quot;&gt;facts_sales&lt;/span&gt;" style="rounded=1;whiteSpace=wrap;html=1;fillColor=#fff2cc;strokeColor=#d6b656;" vertex="1" parent="1">
          <mxGeometry x="985" y="240" width="120" height="60" as="geometry" />
        </mxCell>
        <mxCell id="Gm9DlHDfgeT_d0xdvwFA-18" value="&lt;font style=&quot;font-size: 14px;&quot;&gt;dim_customers&lt;/font&gt;" style="rounded=1;whiteSpace=wrap;html=1;fillColor=#fff2cc;strokeColor=#d6b656;" vertex="1" parent="1">
          <mxGeometry x="985" y="375" width="120" height="60" as="geometry" />
        </mxCell>
        <mxCell id="Gm9DlHDfgeT_d0xdvwFA-19" value="&lt;font style=&quot;font-size: 14px;&quot;&gt;dim_products&lt;/font&gt;" style="rounded=1;whiteSpace=wrap;html=1;fillColor=#fff2cc;strokeColor=#d6b656;" vertex="1" parent="1">
          <mxGeometry x="985" y="520" width="120" height="60" as="geometry" />
        </mxCell>
        <mxCell id="Gm9DlHDfgeT_d0xdvwFA-23" value="" style="endArrow=classic;html=1;rounded=0;exitX=1;exitY=0.5;exitDx=0;exitDy=0;" edge="1" parent="1" source="Gm9DlHDfgeT_d0xdvwFA-3" target="Gm9DlHDfgeT_d0xdvwFA-17">
          <mxGeometry width="50" height="50" relative="1" as="geometry">
            <mxPoint x="870" y="310" as="sourcePoint" />
            <mxPoint x="920" y="260" as="targetPoint" />
          </mxGeometry>
        </mxCell>
        <mxCell id="Gm9DlHDfgeT_d0xdvwFA-24" value="" style="endArrow=classic;html=1;rounded=0;exitX=1;exitY=0.5;exitDx=0;exitDy=0;entryX=0;entryY=0.5;entryDx=0;entryDy=0;" edge="1" parent="1" source="Gm9DlHDfgeT_d0xdvwFA-4" target="Gm9DlHDfgeT_d0xdvwFA-18">
          <mxGeometry width="50" height="50" relative="1" as="geometry">
            <mxPoint x="900" y="350" as="sourcePoint" />
            <mxPoint x="1050" y="364" as="targetPoint" />
          </mxGeometry>
        </mxCell>
        <mxCell id="Gm9DlHDfgeT_d0xdvwFA-25" value="" style="endArrow=classic;html=1;rounded=0;exitX=1;exitY=0.5;exitDx=0;exitDy=0;entryX=0;entryY=0.5;entryDx=0;entryDy=0;" edge="1" parent="1" source="Gm9DlHDfgeT_d0xdvwFA-5" target="Gm9DlHDfgeT_d0xdvwFA-19">
          <mxGeometry width="50" height="50" relative="1" as="geometry">
            <mxPoint x="850" y="480" as="sourcePoint" />
            <mxPoint x="1000" y="494" as="targetPoint" />
          </mxGeometry>
        </mxCell>
        <mxCell id="Gm9DlHDfgeT_d0xdvwFA-26" value="" style="endArrow=classic;html=1;rounded=0;exitX=1;exitY=0.5;exitDx=0;exitDy=0;entryX=0;entryY=0.5;entryDx=0;entryDy=0;" edge="1" parent="1" source="Gm9DlHDfgeT_d0xdvwFA-6" target="Gm9DlHDfgeT_d0xdvwFA-18">
          <mxGeometry width="50" height="50" relative="1" as="geometry">
            <mxPoint x="880" y="510" as="sourcePoint" />
            <mxPoint x="1030" y="524" as="targetPoint" />
          </mxGeometry>
        </mxCell>
        <mxCell id="Gm9DlHDfgeT_d0xdvwFA-27" value="" style="endArrow=classic;html=1;rounded=0;exitX=1;exitY=0.5;exitDx=0;exitDy=0;entryX=0;entryY=0.5;entryDx=0;entryDy=0;" edge="1" parent="1" target="Gm9DlHDfgeT_d0xdvwFA-18">
          <mxGeometry width="50" height="50" relative="1" as="geometry">
            <mxPoint x="830" y="540" as="sourcePoint" />
            <mxPoint x="980" y="554" as="targetPoint" />
          </mxGeometry>
        </mxCell>
        <mxCell id="Gm9DlHDfgeT_d0xdvwFA-28" value="" style="endArrow=classic;html=1;rounded=0;exitX=1;exitY=0.5;exitDx=0;exitDy=0;entryX=0;entryY=0.5;entryDx=0;entryDy=0;" edge="1" parent="1" source="Gm9DlHDfgeT_d0xdvwFA-8" target="Gm9DlHDfgeT_d0xdvwFA-19">
          <mxGeometry width="50" height="50" relative="1" as="geometry">
            <mxPoint x="830" y="600" as="sourcePoint" />
            <mxPoint x="980" y="614" as="targetPoint" />
          </mxGeometry>
        </mxCell>
      </root>
    </mxGraphModel>
  </diagram>
</mxfile>
